<svg width="441" height="419" viewBox="0 0 441 419" fill="none" xmlns="http://www.w3.org/2000/svg">
<path d="M293.436 123.44C293.192 123.94 292.709 124.285 292.155 124.349C279.527 125.814 266.109 124.058 260.936 123.246C252.3 114.618 242.951 105.021 236.059 96.6336C235.352 95.7746 235.318 94.546 235.968 93.6412C245.797 79.9384 254.798 69.065 258.603 64.7599C269.475 62.3904 280.316 60.2928 287.637 59.9937C288.19 59.9715 288.716 60.2261 289.04 60.6748C298.477 73.8003 305.227 86.3782 307.393 90.9738C303.06 102.616 297.847 114.377 293.436 123.44ZM281.388 145.648C274.427 157.302 269.139 164.328 267.444 166.464C265.144 169.711 259.281 178.17 250.173 186.726C249.592 187.272 248.834 187.586 248.035 187.621C236.629 188.096 226.024 187.296 221.894 186.395C218.397 184.949 210.258 181.289 200.638 175.97C199.799 175.507 199.305 174.603 199.368 173.649C199.87 166.192 202.236 155.57 204.329 144.337C209.504 135.25 214.869 124.882 220.432 116.366C221.018 115.47 222.115 115.053 223.15 115.336C239.807 119.883 254.261 123.336 260.129 124.656C268.164 133.973 275.95 140.524 281.188 144.585C281.514 144.838 281.598 145.294 281.388 145.648ZM180.608 161.843C179.764 162.366 178.689 162.338 177.878 161.764C170.625 156.63 161.971 150.069 154.763 143.334C150.511 136.068 147.232 126.769 144.943 118.85C144.795 118.34 144.909 117.788 145.245 117.377C153.333 107.434 163.04 99.5667 167.098 96.5718C176.253 100.521 186.761 104.005 195.953 107.062C196.893 107.374 197.557 108.217 197.635 109.202C198.931 125.554 201.927 138.778 202.727 143.831C199.295 147.498 190.327 155.811 180.608 161.843ZM140.322 97.5013C139.122 89.7822 138.333 81.6751 138.246 77.962C138.047 69.3888 139.409 61.7959 140.991 54.7665C141.251 53.6157 141.848 52.5725 142.719 51.7753C147.314 47.5666 155.623 40.1417 160.867 36.7784C165.81 33.6092 179.548 29.1743 185.213 27.5291C186.311 27.209 187.481 27.6972 188.046 28.6898C188.727 29.8863 189.439 31.0741 190.194 32.2434C194.654 39.1862 199.569 45.1637 201.639 47.752C198.895 58.6464 197.729 70.861 197.198 81.1646C197.148 82.1312 196.532 82.9779 195.629 83.3301C181.296 88.9207 170.463 93.2951 166.823 94.9748C156.975 95.3902 147.595 97.0687 141.264 98.175C140.815 98.2541 140.392 97.9487 140.322 97.5013ZM212.576 22.6851C212.968 22.077 213.61 21.6716 214.328 21.5764C229.067 19.6296 242.552 19.3429 247.735 19.4862C257.167 25.7579 266.384 34.0332 273.74 41.8808C274.255 42.4308 274.332 43.259 273.925 43.8943C268.676 52.1028 261.042 59.9838 257.689 63.4163C245.253 66.3593 232.069 70.6434 221.368 74.155C220.327 74.4961 219.183 74.1093 218.561 73.207C210.441 61.4127 205.281 51.3019 203.258 47.5505C205.454 37.7178 208.525 28.9617 212.576 22.6851ZM311.031 119.502C310.767 119.621 310.464 119.435 310.449 119.147C309.831 107.04 308.717 95.2764 308.134 90.9738C308.181 80.5181 306.447 69.6682 304.717 61.6673C304.655 61.3781 304.911 61.1197 305.202 61.1778C315.096 63.1975 318.272 66.9019 318.272 66.9019C313.034 55.1608 305.487 46.3132 297.284 39.6262C290.271 24.9458 282.199 18.1563 282.199 18.1563C282.852 21.4033 282.402 25.0756 281.245 28.8653C281.172 29.1063 280.896 29.2213 280.669 29.1113C267.227 22.5405 253.347 19.5394 247.978 18.7879C239.955 14.8894 231.192 12.3098 224.066 10.3544C223.876 10.3025 223.824 10.0565 223.977 9.92917C233.435 2.0828 242.135 0.0853732 242.135 0.0853732C226.733 -0.53141 213.476 2.25337 202.391 6.51153C185.829 5.18526 175.279 8.06401 175.279 8.06401C175.279 8.06401 179.852 13.5347 181.63 16.5803C181.844 16.9487 181.732 17.4208 181.381 17.6631C170.964 24.8815 163.49 32.8107 160.543 36.1122C157.26 36.5559 151.574 37.3408 146.608 38.5645C146.41 38.6139 146.242 38.4149 146.322 38.2271C151.295 26.3895 156.716 19.836 156.716 19.836C156.716 19.836 124.752 42.5173 118.693 83.2745C118.693 83.2745 121.325 76.0499 130.225 65.0998C130.342 64.9564 130.569 64.9848 130.645 65.1542C133.167 70.7336 136.05 75.6877 137.499 77.962C132.604 85.8356 129.225 94.4211 127.144 101.447C127.072 101.691 126.888 101.887 126.648 101.977C119.245 104.785 117.359 107.464 117.359 107.464C118.51 111.392 120.77 115.221 123.625 118.83C123.873 119.142 123.999 119.532 123.982 119.93C123.196 137.324 128.812 148.773 128.812 148.773C130.08 142.698 132.563 136.797 135.699 131.259C135.824 131.038 136.118 130.983 136.316 131.14C143.622 136.938 151.19 142.007 154.193 143.807C155.742 147.759 160.177 158.014 166.103 168.535C166.227 168.757 166.126 169.038 165.887 169.125C158.791 171.708 151.511 172.877 144.836 171.253C144.836 171.253 152.886 181.273 177.718 185.546C184.607 193.68 192.991 200.416 202.782 202.756C202.782 202.756 199.912 199.604 199.203 187.858C199.188 187.62 199.379 187.417 199.618 187.421C205.749 187.513 214.066 187.646 221.679 187.094C224.377 189.219 230.265 193.884 236.008 196.857C236.294 197.005 236.312 197.407 236.037 197.574C225.942 203.671 219.225 204.202 219.225 204.202C264.952 205.175 292.407 175.387 292.407 175.387C284.875 180.336 276.177 183.413 267.519 185.246C267.227 185.308 266.971 185.05 267.032 184.758C268.64 176.989 268.189 169.477 268.076 166.83C278.925 164.142 288.389 159.3 295.396 154.35C295.537 154.25 295.726 154.249 295.869 154.348C298.786 156.375 301.282 158.649 303.773 162.435C303.773 162.435 308.517 155.731 310.149 140.198C321.895 124.882 323.641 109.205 323.641 109.205C320.694 113.808 316.244 117.125 311.031 119.502ZM220.501 270.733C200.888 270.733 183.094 279.49 172.24 292.438L175.683 296.68C185.54 284.44 202.309 276.024 220.501 276.024C238.695 276.024 255.463 284.44 265.32 296.68L268.763 292.438C257.908 279.49 240.115 270.733 220.501 270.733ZM174.624 273.482C173.334 274.529 171.834 275.04 170.51 274.883C168.832 274.691 167.813 274.005 166.143 271.948L156.525 260.149L151.339 264.355L161.814 277.215C164.04 279.938 166.578 281.396 169.569 281.67C169.923 281.703 170.273 281.721 170.619 281.724C173.519 281.749 176.212 280.729 178.822 278.622C181.729 276.252 183.325 273.501 183.699 270.211C184.039 267.23 183.128 264.453 180.908 261.723L170.435 248.867L165.249 253.073L174.863 264.878V264.88C176.539 266.929 177.002 268.066 176.847 269.747C176.731 271.07 175.921 272.432 174.624 273.482ZM210.094 236.31L193.294 239.713C192.527 239.868 191.92 240.251 191.543 240.823C191.162 241.394 191.045 242.099 191.2 242.864L194.548 259.325C195.093 262.002 196.296 263.93 198.124 265.056C199.333 265.8 200.783 266.172 202.454 266.171C203.305 266.17 204.214 266.072 205.176 265.877L215.676 263.751L214.413 257.537L204.198 259.607C202.107 260.029 201.428 259.798 200.951 257.456L200.592 255.69L212.407 253.297L211.158 247.154L199.342 249.546L198.445 245.139L211.358 242.523L210.094 236.31ZM242.762 245.292L252.829 247.894L254.42 241.768L244.068 239.092C238.394 237.625 234.508 239.745 233.128 245.06L228.901 261.338C228.706 262.094 228.785 262.803 229.132 263.393C229.479 263.982 230.062 264.396 230.819 264.592L234.662 265.585L237.386 255.057L249.037 258.069L250.611 252.014L238.956 249L239.409 247.26C240.008 244.952 240.698 244.758 242.762 245.292ZM294.999 260.159L298.553 255.78C296.788 254.018 294.951 252.308 293.037 250.66C273.15 233.529 247.389 224.096 220.501 224.096C193.614 224.096 167.854 233.529 147.965 250.66C146.052 252.308 144.214 254.017 142.449 255.779L146.003 260.158C147.798 258.346 149.674 256.589 151.633 254.9C170.503 238.648 194.96 229.698 220.501 229.698C246.042 229.698 270.499 238.648 289.368 254.9C291.329 256.589 293.204 258.346 294.999 260.159ZM267.869 281.891L269.022 277.922L264.062 274.224L268.056 271.369L270.369 273.103L272.996 264.264L257.752 274.1L251.503 270.572L275.414 255.131C276.336 254.535 277.597 254.01 279.193 255.235L280.215 256.021C281.826 257.259 281.596 258.677 281.281 259.636L273.344 286.892L267.869 281.891ZM155.336 410.974H137.702V397.461H148.211L152.513 401.122H152.657V387.327H152.513L148.211 390.988H137.702V379.233H154.702L159.64 384.513H159.78L159.216 372.827H122.958V372.97L126.277 376.981V413.298L122.958 417.308V417.449H160.768L161.685 404.007H161.542L155.336 410.974ZM161.998 321.158L174.485 352.971H181.468L193.037 320.808L195.01 348.816L190.636 352.827V352.971H209.61V352.827L205.945 348.816L203.261 312.499L206.155 308.488V308.349H190.356L179.633 338.117L168.064 308.349H152.053V308.488L155.299 312.499L153.392 348.816L149.516 352.827V352.971H165.101V352.827L161.224 348.816L161.998 321.158ZM109.494 410.903H94.1894V376.981L98.3529 372.97V372.827H79.4457V372.97L82.7643 376.981V413.298L79.4457 417.237V417.449H114.926L116.621 403.446H116.477L109.494 410.903ZM75.3243 352.827V352.971H93.3136V352.827L89.995 348.816V312.499L93.3136 308.488V308.349H75.3243V308.488L78.5699 312.499V326.013H62.5588V312.499L65.8044 308.488V308.349H47.8163V308.488L51.1325 312.499V348.816L47.8163 352.827V352.971H65.8044V352.827L62.5588 348.816V333.122H78.5699V348.816L75.3243 352.827ZM356.266 410.974H338.631V397.461H349.139L353.442 401.122H353.585V387.327H353.442L349.139 390.988H338.631V379.233H355.632L360.568 384.513H360.708L360.146 372.827H323.888V372.97L327.206 376.981V413.298L323.888 417.308V417.449H361.697L362.615 404.007H362.471L356.266 410.974ZM194.387 399.642L189.099 381.91L182.89 399.642H194.387ZM210.187 413.298L213.855 417.308V417.449H194.742V417.308L198.41 413.298L196.365 406.331H180.565L178.164 413.298L181.621 417.308V417.449H166.668V417.308L170.196 413.298L183.95 376.981L181.339 372.97V372.827H196.504L210.187 413.298ZM26.9456 347.058C17.7738 347.058 11.9194 337.766 11.9194 329.741C11.9194 319.889 17.2795 313.486 24.9685 313.486C27.0137 313.486 28.9908 313.697 30.7548 314.186L37.6659 322.705H37.8083L37.3141 308.628C35.337 307.855 31.0372 306.797 25.7452 306.797C9.38364 306.797 0 317.919 0 330.728C0 343.398 9.02812 354.515 24.5461 354.515C28.7084 354.515 34.8452 353.11 39.0768 349.943L39.7111 342.553H39.5711C35.9749 345.367 30.8217 347.058 26.9456 347.058ZM283.798 352.827L280.553 348.816V312.499L283.798 308.488V308.349H265.81V308.488L269.126 312.499V348.816L265.81 352.827V352.971H283.798V352.827ZM244.34 396.546L248.782 400.561V408.936C247.37 410.553 244.902 411.889 241.589 411.889C233.688 411.889 229.526 402.248 229.526 394.154C229.526 385.356 233.972 377.967 243.14 377.967C245.679 377.967 248.36 378.179 250.545 378.95L257.6 386.55H257.74L257.316 374.306C253.226 372.194 248.288 371.283 243.28 371.283C228.257 371.283 217.605 380.502 217.605 395.703C217.605 408.439 225.788 419 238.554 419C244.128 419 249.205 417.731 253.931 414.285L259.501 419H259.645V400.561L263.17 396.546V396.406H244.34V396.546ZM232.665 331.293C234.077 331.715 235.697 331.925 237.391 331.925C243.6 331.925 246.28 328.547 246.28 323.549C246.28 317.636 242.823 314.823 236.402 314.823H232.665V331.293ZM221.24 348.816V312.499L217.922 308.488V308.349H239.085C251.923 308.349 257.777 314.186 257.777 323.06C257.777 332.278 250.794 337.978 241.272 337.978C238.169 337.978 234.994 337.766 232.665 337.205V348.816L237.32 352.827V352.971H217.922V352.827L221.24 348.816ZM327.809 333.895C327.809 326.155 324.918 313.837 315.04 313.837C307.14 313.837 304.883 321.719 304.883 327.067C304.883 334.881 308.129 347.479 317.653 347.479C324.492 347.479 327.809 341.002 327.809 333.895ZM315.958 354.515C301.992 354.515 292.964 343.043 292.964 330.027C292.964 316.582 303.332 306.797 316.312 306.797C330.629 306.797 339.8 317.99 339.8 330.799C339.8 345.438 328.726 354.515 315.958 354.515ZM301.041 372.97L304.71 376.981V402.391C304.71 409.709 301.113 411.539 295.258 411.539C289.332 411.539 285.736 409.848 285.736 402.391V376.981L289.404 372.97V372.827H270.992V372.97L274.309 376.981V402.391C274.309 414.563 280.516 419 293.775 419C305.838 419 311.975 414.846 311.975 402.741V376.981L315.217 372.97V372.827H301.041V372.97ZM386.232 378.453C386.232 375.281 383.821 372.883 380.779 372.883C377.704 372.883 375.297 375.281 375.297 378.453C375.297 381.69 377.704 384.072 380.779 384.072C383.821 384.072 386.232 381.69 386.232 378.453ZM387.585 378.453C387.585 382.347 384.442 385.187 380.779 385.187C377.084 385.187 373.946 382.347 373.946 378.453C373.946 374.606 377.084 371.762 380.779 371.762C384.442 371.762 387.585 374.606 387.585 378.453ZM380.769 377.989C381.761 377.989 382.654 377.935 382.654 376.74C382.654 375.777 381.782 375.603 380.955 375.603H379.352V377.989H380.769ZM381.871 378.936L384.061 382.346H382.755L380.716 378.991H379.352V382.346H378.185V374.606H381.139C382.973 374.606 383.876 375.281 383.876 376.805C383.876 378.191 383.004 378.789 381.871 378.936ZM378.939 308.488L383.243 312.499V336.147L365.113 308.349H348.819V308.488L352.136 312.499V348.816L348.819 352.827V352.971H363.702V352.827L359.331 348.816V319.255L381.97 352.971H390.436V312.499L393.75 308.488V308.349H378.939V308.488ZM424.423 325.522C416.311 323.27 413.843 322.284 413.843 318.555C413.843 314.262 419.417 313.415 422.943 313.415C425.906 313.415 428.657 313.765 431.126 314.541L437.897 321.862H438.037L437.474 309.261C433.239 307.645 428.797 306.797 423.72 306.797C413.068 306.797 402.84 310.458 402.84 321.018C402.84 327.843 407.566 331.925 417.794 334.742C425.695 336.923 429.575 338.329 429.575 342.342C429.575 346.986 423.649 347.97 419.697 347.97C416.383 347.97 413.42 347.479 410.879 346.704L404.04 338.259H403.897L404.391 351.63C409.049 353.742 414.691 354.515 419.979 354.515C431.406 354.515 441 349.732 441 340.09C441 331.01 434.723 328.407 424.423 325.522ZM114.745 335.163H126.242L120.954 317.426L114.745 335.163ZM113.477 352.971H98.5226V352.827L102.052 348.816L115.806 312.499L113.195 308.488V308.349H128.359L142.043 348.816L145.711 352.827V352.971H126.597V352.827L130.266 348.816L128.22 341.849H112.42L110.02 348.816L113.477 352.827V352.971Z" fill="white"/>
</svg>
