<?xml version="1.0" standalone="no"?>
<!DOCTYPE svg PUBLIC "-//W3C//DTD SVG 20010904//EN"
 "http://www.w3.org/TR/2001/REC-SVG-20010904/DTD/svg10.dtd">
<svg version="1.0" xmlns="http://www.w3.org/2000/svg"
 width="100" height="50" viewBox="0 0 1000.000000 1589.000000"
 preserveAspectRatio="xMidYMid meet">

<g transform="translate(0.000000,1589.000000) scale(0.100000,-0.100000)"
fill="white" stroke="none">
<path d="M4505 15880 c-1450 -71 -2712 -402 -3550 -932 -188 -120 -334 -236
-485 -387 -165 -166 -254 -284 -334 -446 -69 -138 -103 -249 -124 -395 l-16
-115 537 -5830 c295 -3206 540 -5861 543 -5900 24 -300 166 -571 435 -830 190
-183 389 -318 689 -468 542 -272 1189 -448 1953 -531 293 -32 471 -41 862 -40
417 0 632 13 970 55 1469 186 2576 768 2866 1509 47 120 66 213 79 382 5 73
239 2653 519 5733 361 3966 514 5613 525 5644 12 32 17 93 20 222 2 98 1 179
-3 181 -3 2 -16 55 -29 118 -97 479 -466 889 -1105 1225 -745 391 -1928 686
-3163 790 -221 18 -936 27 -1189 15z m1065 -374 c1519 -117 2703 -430 3380
-894 320 -219 541 -485 633 -764 46 -138 51 -182 37 -345 l-12 -148 -61 -139
c-70 -160 -105 -215 -217 -344 -374 -427 -1032 -767 -1892 -976 -603 -147
-1239 -231 -2093 -277 -680 -37 -1706 54 -2510 222 -1176 245 -1959 660 -2298
1220 -102 168 -169 366 -170 504 -1 183 95 426 252 635 540 718 1981 1198
3961 1320 204 12 746 4 990 -14z m-4810 -3177 c338 -269 732 -473 1245 -644
728 -244 1573 -376 2728 -426 469 -21 1177 16 1787 92 1292 162 2246 541 2923
1162 97 90 99 90 93 56 -3 -19 -222 -2421 -486 -5339 -264 -2918 -487 -5343
-496 -5390 -129 -692 -1288 -1291 -2794 -1444 -521 -53 -1183 -46 -1695 19
-864 110 -1586 356 -2098 715 -122 86 -329 292 -395 394 -65 101 -111 210
-128 306 -11 61 -995 10724 -994 10769 0 8 48 -33 108 -90 59 -58 150 -139
202 -180z"/>
<path d="M1308 10698 c-48 -13 -104 -68 -119 -117 -10 -32 18 -357 180 -2102
105 -1135 196 -2081 201 -2101 13 -45 52 -93 93 -114 35 -19 116 -20 149 -3
43 22 88 73 99 111 8 31 -29 454 -181 2101 -106 1134 -196 2079 -201 2099 -24
95 -125 153 -221 126z"/>
<path d="M4505 3379 c-1423 -82 -2475 -489 -2681 -1036 -27 -72 -41 -187 -30
-246 21 -111 168 -168 266 -103 48 32 75 82 84 159 9 79 39 139 109 214 236
252 849 475 1612 587 385 56 682 76 1135 76 453 0 748 -20 1135 -76 763 -112
1376 -335 1612 -587 70 -75 100 -135 109 -214 9 -77 36 -127 84 -159 98 -65
245 -8 266 102 21 113 -55 323 -171 474 -152 198 -437 377 -800 503 -411 143
-925 232 -1703 297 -259 21 -739 26 -1027 9z"/>
</g>
</svg>
